<?xml version="1.0" standalone="no"?>
<!DOCTYPE svg PUBLIC "-//W3C//DTD SVG 20010904//EN"
 "http://www.w3.org/TR/2001/REC-SVG-20010904/DTD/svg10.dtd">
<svg version="1.0" xmlns="http://www.w3.org/2000/svg"
 width="504.000000pt" height="310.000000pt" viewBox="0 0 504.000000 310.000000"
 preserveAspectRatio="xMidYMid meet">

<g transform="translate(0.000000,310.000000) scale(0.100000,-0.100000)"
fill="#000000" stroke="none">
<path d="M382 2322 l-374 -767 386 -772 386 -773 349 0 348 0 428 847 c236
467 432 854 438 861 7 8 50 12 152 12 l143 0 126 232 126 231 -127 234 -128
233 -318 -2 -319 -3 -124 -225 c-68 -124 -124 -229 -124 -234 0 -5 55 -111
122 -234 l121 -224 -19 -38 c-10 -21 -181 -349 -379 -729 l-360 -691 -118 0
-117 0 -317 635 -318 635 318 635 317 635 510 0 510 0 0 135 0 135 -632 0
-633 0 -373 -768z"/>
<path d="M3573 3078 c-6 -7 -202 -394 -437 -860 l-428 -848 -146 0 -147 -1
-120 -222 c-66 -122 -120 -229 -120 -237 0 -8 54 -115 120 -237 l120 -222 315
-1 315 0 123 224 c67 123 122 229 122 236 0 7 -54 112 -121 233 l-121 221 20
41 c11 22 182 351 380 730 l360 690 124 3 123 3 319 -638 318 -638 -321 -643
-321 -642 -505 0 -505 0 0 -130 0 -130 623 0 622 0 242 497 c133 274 301 621
374 771 l133 273 -384 770 -385 769 -341 0 c-261 0 -344 -3 -351 -12z"/>
</g>
</svg>
